<?xml version="1.0" encoding="UTF-8" standalone="no"?>
<svg
   xmlns:dc="http://purl.org/dc/elements/1.1/"
   xmlns:cc="http://creativecommons.org/ns#"
   xmlns:rdf="http://www.w3.org/1999/02/22-rdf-syntax-ns#"
   xmlns:svg="http://www.w3.org/2000/svg"
   xmlns="http://www.w3.org/2000/svg"
   xmlns:sodipodi="http://sodipodi.sourceforge.net/DTD/sodipodi-0.dtd"
   xmlns:inkscape="http://www.inkscape.org/namespaces/inkscape"
   version="1.0"
   width="131pt"
   height="35pt"
   viewBox="0 0 131 35"
   preserveAspectRatio="xMidYMid meet"
   id="svg14"
   sodipodi:docname="logo.svg"
   inkscape:version="0.92.3 (unknown)">
  <defs
     id="defs18" />
  <sodipodi:namedview
     pagecolor="#ffffff"
     bordercolor="#666666"
     borderopacity="1"
     objecttolerance="10"
     gridtolerance="10"
     guidetolerance="10"
     inkscape:pageopacity="0"
     inkscape:pageshadow="2"
     inkscape:window-width="1366"
     inkscape:window-height="744"
     id="namedview16"
     showgrid="false"
     fit-margin-top="0"
     fit-margin-left="0"
     fit-margin-right="0"
     fit-margin-bottom="0"
     inkscape:zoom="3.9922919"
     inkscape:cx="85.579955"
     inkscape:cy="23.8343"
     inkscape:window-x="0"
     inkscape:window-y="24"
     inkscape:window-maximized="1"
     inkscape:current-layer="svg14" />
  <metadata
     id="metadata2">
Created by potrace 1.15, written by Peter Selinger 2001-2017
<rdf:RDF>
  <cc:Work
     rdf:about="">
    <dc:format>image/svg+xml</dc:format>
    <dc:type
       rdf:resource="http://purl.org/dc/dcmitype/StillImage" />
    <dc:title></dc:title>
  </cc:Work>
</rdf:RDF>
</metadata>
  <g
     transform="matrix(0.1,0,0,-0.1,0,35)"
     id="g12"
     style="fill:#4a4a4a;fill-opacity:1;stroke:none">
    <path
       d="M 0,175 V 0 h 136 135 l -3,33 -3,32 H 177 90 V 208 350 H 45 0 Z"
       id="path4"
       inkscape:connector-curvature="0"
       style="fill:#4a4a4a;fill-opacity:1" />
    <path
       d="M 320,175 V 0 h 45 45 v 175 175 h -45 -45 z"
       id="path6"
       inkscape:connector-curvature="0"
       style="fill:#4a4a4a;fill-opacity:1" />
    <path
       d="M 629,298 C 611,269 564,191 524,125 L 452,5 663,2 c 115,-1 212,0 214,2 3,2 -21,46 -53,98 -31,51 -78,128 -103,171 -25,42 -48,77 -52,77 -4,0 -22,-24 -40,-52 z M 736,108 760,60 h -95 -96 l 26,43 c 14,23 36,61 48,85 l 21,42 24,-37 c 12,-21 34,-59 48,-85 z"
       id="path8"
       inkscape:connector-curvature="0"
       style="fill:#4a4a4a;fill-opacity:1" />
    <path
       d="M 920,175 V 0 h 45 44 l 3,114 3,114 98,-114 99,-114 h 49 49 v 175 175 h -45 -44 l -3,-116 -3,-117 -100,117 -100,116 h -47 -48 z"
       id="path10"
       inkscape:connector-curvature="0"
       style="fill:#4a4a4a;fill-opacity:1" />
  </g>
</svg>
